<?xml version="1.0" standalone="no"?><!DOCTYPE svg PUBLIC "-//W3C//DTD SVG 1.1//EN" "http://www.w3.org/Graphics/SVG/1.1/DTD/svg11.dtd"><svg xmlns:xlink="http://www.w3.org/1999/xlink" version="1.1" style="font-family:'lucida grande', 'lucida sans unicode', arial, helvetica, sans-serif;font-size:12px;" xmlns="http://www.w3.org/2000/svg" width="600" height="400"><desc>Created with Highcharts 4.2.7</desc><defs><clipPath id="highcharts-5"><rect x="0" y="0" width="600" height="400"></rect></clipPath></defs><g class="highcharts-series-group"><g class="highcharts-series highcharts-series-0" transform="translate(10,10) scale(1 1)"><path fill="rgb(55,155,25)" d="M 289.96930279718305 280.5764227161131 L 289.96930279718305 288.5313740044617 L 290 176.45495128834867 L 290 168.5 Z" transform="translate(0,0)" visibility="visible"></path><path fill="rgb(11,178,204)" d="M 240.98617987658997 61.916944505915936 L 240.98617987658997 69.87189579426459 L 290 176.45495128834867 L 290 168.5 Z" transform="translate(0,0)" visibility="visible"></path><path fill="rgb(11,178,204)" d="M 289.9367616107044 56.4235841023944 L 289.9367616107044 64.37853539074305 L 290 176.45495128834867 L 290 168.5 Z" transform="translate(0,0)" visibility="visible"></path><path fill="rgb(196,198,0)" d="M 139.26969761559474 133.84003791760762 L 139.26969761559474 141.79498920595628 L 290 176.45495128834867 L 290 168.5 Z" transform="translate(0,0)" visibility="visible"></path><path fill="rgb(11,178,204)" d="M 240.98617987658997 61.916944505915936 C 257.62651832636425 58.090789627032905 272.4387692316312 56.4285206666354 289.9367616107044 56.4235841023944 L 289.9367616107044 64.37853539074305 C 272.4387692316312 64.38347195498406 257.62651832636425 66.04574091538156 240.98617987658997 69.87189579426459 Z" transform="translate(0,0)" visibility="visible"></path><path fill="rgb(11,178,204)" d="M 290 168.5 C 290 168.5 290 168.5 290 168.5 L 290 176.45495128834867 C 290 176.45495128834867 290 176.45495128834867 290 176.45495128834867 Z" transform="translate(0,0)" visibility="visible"></path><path fill="rgb(196,198,0)" d="M 240.98467256701474 61.91729109129088 L 240.98467256701474 69.87224237963953 L 290 176.45495128834867 L 290 168.5 Z" transform="translate(0,0)" visibility="visible"></path><path fill="rgb(212,61,2)" d="M 289.96771779721433 280.57642249344724 L 289.96771779721433 288.5313737817959 L 290 176.45495128834867 L 290 168.5 Z" transform="translate(0,0)" visibility="visible"></path><path fill="rgb(196,198,0)" d="M 139.26969761559474 133.84003791760762 C 155.503959508 98.54001078236482 191.06275962571385 73.39635244163952 240.98467256701474 61.91729109129088 L 240.98467256701474 69.87224237963953 C 191.06275962571385 81.35130372998817 155.503959508 106.49496207071347 139.26969761559474 141.79498920595628 Z" transform="translate(0,0)" visibility="visible"></path><path fill="rgb(196,198,0)" d="M 290 168.5 C 290 168.5 290 168.5 290 168.5 L 290 176.45495128834867 C 290 176.45495128834867 290 176.45495128834867 290 176.45495128834867 Z" transform="translate(0,0)" visibility="visible"></path><path fill="rgb(212,61,2)" d="M 139.26920745724678 133.84110374353008 L 139.26920745724678 141.79605503187875 L 290 176.45495128834867 L 290 168.5 Z" transform="translate(0,0)" visibility="visible"></path><path fill="rgb(55,155,25)" d="M 289.96771779721433 56.42357750655273 L 289.96771779721433 64.37852879490138 L 290 176.45495128834867 L 290 168.5 Z" transform="translate(0,0)" visibility="visible"></path><path fill="rgb(212,61,2)" d="M 289.96771779721433 280.57642249344724 C 202.44193703825215 280.5638171437199 131.5 230.3900743869952 131.5 168.5 L 131.5 176.45495128834867 C 131.5 164.0659495239971 133.8510481276331 153.57778408395623 139.26920745724678 141.79605503187875 L 139.26920745724678 133.84110374353008 C 133.8510481276331 145.62283279560756 131.5 156.11099823564842 131.5 168.5 L 131.5 176.45495128834867 C 131.5 238.34502567534386 202.44193703825215 288.51876843206855 289.96771779721433 288.5313737817959 Z" transform="translate(0,0)" visibility="visible"></path><path fill="rgb(212,61,2)" d="M 290 168.5 C 290 168.5 290 168.5 290 168.5 C 290 168.5 290 168.5 290 168.5 L 290 176.45495128834867 C 290 176.45495128834867 290 176.45495128834867 290 176.45495128834867 C 290 176.45495128834867 290 176.45495128834867 290 176.45495128834867 Z" transform="translate(0,0)" visibility="visible"></path><path fill="rgb(55,155,25)" d="M 448.5 168.5 C 448.5 230.3981002425763 377.53713284818076 280.5764248180678 290 280.5764248180678 C 289.9892070048834 280.5764248180678 289.98009579209725 280.57642419418823 289.96930279718305 280.5764227161131 L 289.96930279718305 288.5313740044617 C 377.5064340036351 288.5433620078506 448.4830434304089 238.37475657032277 448.49999702738717 176.476657488624 C 448.4999991177011 176.46902568873088 448.5 176.46258308838492 448.5 176.45495128834867 Z" transform="translate(0,0)" visibility="visible"></path><path fill="rgb(55,155,25)" d="M 290 168.5 C 290 168.5 290 168.5 290 168.5 C 290 168.5 290 168.5 290 168.5 C 290 168.5 290 168.5 290 168.5 L 290 176.45495128834867 C 290 176.45495128834867 290 176.45495128834867 290 176.45495128834867 C 290 176.45495128834867 290 176.45495128834867 290 176.45495128834867 C 290 176.45495128834867 290 176.45495128834867 290 176.45495128834867 Z" transform="translate(0,0)" visibility="visible"></path><g stroke="#50B432" stroke-width="1" stroke-linejoin="round"><path fill="#50B432" d="M 289.96771779721433 56.42357750655273 C 377.50484882975354 56.410970522173685 448.48216774420064 106.57907407677475 448.49999671249014 168.4771730354986 C 448.51782568077965 230.37527199422243 377.56941323532493 280.5638155090682 290.0322822027857 280.57642249344724 C 290.01013893431593 280.57642568249213 289.99144606569683 280.5764257485814 289.96930279718305 280.5764227161131 L 290 168.5 C 290 168.5 290 168.5 290 168.5 C 290 168.5 290 168.5 290 168.5 C 290 168.5 290 168.5 290 168.5 Z" transform="translate(0,0)" visibility="visible"></path></g><g stroke="#ED561B" stroke-width="1" stroke-linejoin="round"><path fill="#ED561B" d="M 289.96771779721433 280.57642249344724 C 202.43058676467513 280.5638155090682 131.4821743192204 230.37527199422246 131.50000328750986 168.47717303549862 C 131.50356947170621 156.09619738352677 133.8545581250584 145.6152003440456 139.26920745724678 133.84110374353008 L 290 168.5 C 290 168.5 290 168.5 290 168.5 C 290 168.5 290 168.5 290 168.5 Z" transform="translate(0,0)" visibility="visible"></path></g><g stroke="#DDDF00" stroke-width="1" stroke-linejoin="round"><path fill="#DDDF00" d="M 139.26969761559474 133.84003791760762 C 155.503959508 98.54001078236482 191.06275962571385 73.39635244163952 240.98467256701474 61.91729109129088 L 290 168.5 C 290 168.5 290 168.5 290 168.5 Z" transform="translate(0,0)" visibility="visible"></path></g><g stroke="#24CBE5" stroke-width="1" stroke-linejoin="round"><path fill="#24CBE5" d="M 240.98617987658997 61.916944505915936 C 257.62651832636425 58.090789627032905 272.4387692316312 56.4285206666354 289.9367616107044 56.4235841023944 L 290 168.5 C 290 168.5 290 168.5 290 168.5 Z" transform="translate(0,0)" visibility="visible"></path></g></g><g class="highcharts-markers highcharts-series-0" transform="translate(10,10) scale(1 1)"></g></g><g class="highcharts-data-labels highcharts-series-0" transform="translate(10,10) scale(1 1)" opacity="1"><path fill="none" d="M 483.5 168.5 C 478.5 168.5 470.5 168.5 459.5 168.5 L 448.5 168.5" stroke="#50B432" stroke-width="1"></path><path fill="none" d="M 116.01230382183908 252.01891127401973 C 121.01230382183908 252.01891127401973 143.97243251532203 247.3166292556799 152.87161945344644 240.8509914804627 L 161.77080639157086 234.3853537052455" stroke="#ED561B" stroke-width="1"></path><path fill="none" d="M 125.5024911685272 68.03709800849738 C 130.5024911685272 68.03709800849738 162.36722599582814 73.69395225798978 170.14540058888016 81.47212685104179 L 177.9235751819322 89.25030144409381" stroke="#DDDF00" stroke-width="1"></path><path fill="none" d="M 159.14338364870372 28.17052298037085 C 164.14338364870372 28.17052298037085 261.76357906023827 36.072029705131946 263.4843581756808 46.93660145167846 L 265.2051372911234 57.80117319822498" stroke="#24CBE5" stroke-width="1"></path><g style="cursor:pointer;" transform="translate(489,159)"><text x="5" style="font-size:10px;font-weight:bold;font-family:'arial', sans-serif;color:#000000;text-shadow:0 0 6px #ffffff, 0 0 3px #ffffff;fill:#000000;text-rendering:geometricprecision;" y="15"><tspan>HTML : 50 %</tspan></text></g><g style="cursor:pointer;" transform="translate(49,242)"><text x="5" style="font-size:10px;font-weight:bold;font-family:'arial', sans-serif;color:#000000;text-shadow:0 0 6px #ffffff, 0 0 3px #ffffff;fill:#000000;text-rendering:geometricprecision;" y="15"><tspan>CSS : 30 %</tspan></text></g><g style="cursor:pointer;" transform="translate(58,58)"><text x="5" style="font-size:10px;font-weight:bold;font-family:'arial', sans-serif;color:#000000;text-shadow:0 0 6px #ffffff, 0 0 3px #ffffff;fill:#000000;text-rendering:geometricprecision;" y="15"><tspan>PHP : 15 %</tspan></text></g><g style="cursor:pointer;" transform="translate(67,18)"><text x="5" style="font-size:10px;font-weight:bold;font-family:'arial', sans-serif;color:#000000;text-shadow:0 0 6px #ffffff, 0 0 3px #ffffff;fill:#000000;text-rendering:geometricprecision;" y="15"><tspan>JavaScript : 5 %</tspan></text></g></g><g class="highcharts-legend" transform="translate(153,359)"><g><g><g class="highcharts-legend-item" transform="translate(8,3)"><text x="21" style="color:#333;font-size:9pt;font-weight:normal;cursor:pointer;font-family:'lucida grande','lucida sans unicode',arial,helvetica,sans-serif;text-transform:none;fill:#333;" text-anchor="start" y="15">HTML</text><rect x="0" y="4" width="16" height="12" fill="#50B432"></rect></g><g class="highcharts-legend-item" transform="translate(82.140625,3)"><text x="21" y="15" style="color:#333;font-size:9pt;font-weight:normal;cursor:pointer;font-family:'lucida grande','lucida sans unicode',arial,helvetica,sans-serif;text-transform:none;fill:#333;" text-anchor="start">CSS</text><rect x="0" y="4" width="16" height="12" fill="#ED561B"></rect></g><g class="highcharts-legend-item" transform="translate(144.359375,3)"><text x="21" y="15" style="color:#333;font-size:9pt;font-weight:normal;cursor:pointer;font-family:'lucida grande','lucida sans unicode',arial,helvetica,sans-serif;text-transform:none;fill:#333;" text-anchor="start">PHP</text><rect x="0" y="4" width="16" height="12" fill="#DDDF00"></rect></g><g class="highcharts-legend-item" transform="translate(207.4375,3)"><text x="21" y="15" style="color:#333;font-size:9pt;font-weight:normal;cursor:pointer;font-family:'lucida grande','lucida sans unicode',arial,helvetica,sans-serif;text-transform:none;fill:#333;" text-anchor="start">JavaScript</text><rect x="0" y="4" width="16" height="12" fill="#24CBE5"></rect></g></g></g></g><g class="highcharts-tooltip" display="none" style="cursor:default;padding:0;pointer-events:none;white-space:nowrap;" transform="translate(0,0)"><path fill="none" d="M 3.5 0.5 L 13.5 0.5 C 16.5 0.5 16.5 0.5 16.5 3.5 L 16.5 13.5 C 16.5 16.5 16.5 16.5 13.5 16.5 L 3.5 16.5 C 0.5 16.5 0.5 16.5 0.5 13.5 L 0.5 3.5 C 0.5 0.5 0.5 0.5 3.5 0.5"  stroke="black" stroke-opacity="0.049999999999999996" stroke-width="5" transform="translate(1, 1)"></path><path fill="none" d="M 3.5 0.5 L 13.5 0.5 C 16.5 0.5 16.5 0.5 16.5 3.5 L 16.5 13.5 C 16.5 16.5 16.5 16.5 13.5 16.5 L 3.5 16.5 C 0.5 16.5 0.5 16.5 0.5 13.5 L 0.5 3.5 C 0.5 0.5 0.5 0.5 3.5 0.5"  stroke="black" stroke-opacity="0.09999999999999999" stroke-width="3" transform="translate(1, 1)"></path><path fill="none" d="M 3.5 0.5 L 13.5 0.5 C 16.5 0.5 16.5 0.5 16.5 3.5 L 16.5 13.5 C 16.5 16.5 16.5 16.5 13.5 16.5 L 3.5 16.5 C 0.5 16.5 0.5 16.5 0.5 13.5 L 0.5 3.5 C 0.5 0.5 0.5 0.5 3.5 0.5"  stroke="black" stroke-opacity="0.15" stroke-width="1" transform="translate(1, 1)"></path><path fill="rgb(249, 249, 249)" fill-opacity=" .85" d="M 3.5 0.5 L 13.5 0.5 C 16.5 0.5 16.5 0.5 16.5 3.5 L 16.5 13.5 C 16.5 16.5 16.5 16.5 13.5 16.5 L 3.5 16.5 C 0.5 16.5 0.5 16.5 0.5 13.5 L 0.5 3.5 C 0.5 0.5 0.5 0.5 3.5 0.5"></path><text x="8" style="font-size:12px;color:#000000;fill:#000000;" y="20"></text></g><text x="590" text-anchor="end" style="cursor:pointer;color:#909090;font-size:9px;fill:#909090;" y="395">meta-chart.com</text></svg>