<?xml version="1.0" standalone="no"?>
<!DOCTYPE svg PUBLIC "-//W3C//DTD SVG 20010904//EN"
 "http://www.w3.org/TR/2001/REC-SVG-20010904/DTD/svg10.dtd">
<svg version="1.0" xmlns="http://www.w3.org/2000/svg"
 width="3300.000000pt" height="2550.000000pt" viewBox="0 0 3300.000000 2550.000000"
 preserveAspectRatio="xMidYMid meet">
<metadata>
Created by potrace 1.14, written by Peter Selinger 2001-2017
</metadata>
<g transform="translate(0.000000,2550.000000) scale(0.100000,-0.100000)"
fill="#000000" stroke="none">
<path d="M9025 20415 c-27 -15 -124 -82 -215 -149 -91 -67 -190 -133 -220
-146 -68 -29 -70 -32 -100 -100 -45 -101 -42 -99 -108 -84 -55 13 -59 13 -108
-12 -101 -51 -184 -143 -184 -203 0 -11 25 -76 56 -142 l57 -122 -7 -152 c-6
-151 -6 -156 44 -456 63 -382 64 -433 8 -424 -10 2 -20 -1 -23 -6 -3 -5 9 -85
26 -179 l33 -169 51 -26 c63 -32 108 -73 125 -114 10 -26 10 -45 0 -105 l-12
-74 -37 -6 c-20 -3 -69 -6 -110 -6 l-74 0 6 -47 c4 -27 10 -97 13 -156 8 -128
0 -121 149 -131 152 -10 155 -11 155 -52 0 -37 -33 -116 -57 -136 -15 -12 -28
-10 -170 33 -23 7 -46 9 -50 5 -13 -12 -9 -288 6 -560 12 -210 13 -296 2 -545
-25 -575 -25 -615 -6 -683 10 -35 33 -96 53 -136 25 -50 33 -78 26 -86 -84
-114 -89 -126 -87 -211 2 -75 6 -89 51 -186 81 -170 89 -216 40 -239 -27 -12
-35 -25 -49 -73 -15 -52 -47 -105 -87 -146 -11 -12 -13 -35 -9 -98 3 -50 -1
-121 -9 -176 -8 -51 -12 -112 -9 -137 3 -25 10 -157 15 -293 7 -202 6 -267 -6
-345 -8 -53 -28 -196 -44 -317 -16 -121 -34 -249 -40 -285 -5 -36 -10 -209
-10 -386 l0 -320 -60 -150 -61 -149 21 -95 c11 -52 22 -95 23 -96 1 -1 31 -6
67 -12 65 -11 137 -4 162 15 7 5 63 50 123 99 61 49 223 166 362 258 205 137
255 176 270 205 15 30 18 68 21 221 1 102 -1 205 -5 229 l-8 44 -118 41 c-132
46 -125 36 -101 154 26 126 57 170 138 201 28 10 70 22 94 26 l42 7 0 104 c0
122 -20 229 -61 332 l-29 73 41 107 40 107 -10 305 c-33 983 -34 1085 -13
1235 12 84 23 232 27 370 4 127 13 266 19 311 l12 80 -77 160 c-63 130 -75
162 -66 176 71 100 98 146 106 176 11 41 61 647 61 732 0 70 -13 119 -52 197
-27 53 -30 66 -20 87 9 21 19 25 63 28 l51 3 46 100 c25 55 47 102 49 104 1 2
13 -8 25 -24 26 -34 91 -64 138 -65 19 0 40 -4 46 -8 6 -4 37 -88 70 -187 40
-125 82 -226 134 -330 103 -205 261 -475 277 -475 8 0 36 11 63 25 27 14 53
25 58 25 5 0 18 -42 27 -92 13 -65 34 -126 70 -204 l53 -110 -18 -81 c-10 -44
-20 -85 -24 -91 -10 -17 113 -268 826 -1682 l179 -355 113 -96 c72 -62 118
-109 127 -130 30 -75 7 -232 -52 -350 l-18 -36 53 -79 c28 -43 66 -99 83 -124
17 -25 40 -74 53 -110 111 -324 110 -321 183 -420 68 -90 75 -106 150 -313 43
-120 92 -241 109 -270 18 -29 39 -64 48 -80 l16 -28 24 21 c28 24 38 25 70 3
68 -45 120 -116 120 -164 0 -12 13 -36 29 -54 19 -22 31 -49 35 -81 16 -114
45 -168 161 -304 78 -92 65 -89 210 -43 205 64 266 135 390 453 49 125 77 179
111 214 31 31 122 76 154 76 44 0 51 68 19 200 -36 150 -38 134 27 198 83 81
331 312 365 341 46 38 144 202 374 631 120 223 225 416 235 430 14 21 187 317
224 385 6 11 18 31 27 45 17 27 78 131 180 305 35 60 69 118 76 130 15 24 11
15 95 205 38 85 81 178 94 207 13 29 28 63 33 76 28 72 114 175 259 310 30 28
52 57 52 69 0 44 33 145 81 246 91 192 116 263 137 384 19 108 24 122 65 180
25 35 57 97 71 138 33 91 42 106 101 162 44 41 46 46 54 118 l9 75 172 258
171 259 -14 90 -14 89 28 43 c24 39 33 45 92 59 101 26 99 27 130 -58 28 -74
28 -79 27 -278 l-2 -202 41 -170 c31 -128 41 -190 41 -252 l0 -83 53 -26 c28
-15 54 -28 56 -30 2 -2 -15 -40 -38 -84 l-42 -80 25 -218 c14 -119 36 -309 50
-422 23 -193 23 -212 11 -330 -11 -105 -11 -161 0 -353 10 -149 12 -301 8
-438 l-6 -209 -96 -62 c-183 -117 -201 -130 -201 -143 0 -28 72 -114 164 -198
94 -84 99 -87 136 -81 l38 6 1 -100 c1 -73 -4 -119 -19 -173 -32 -117 -28
-210 15 -320 19 -50 35 -105 35 -123 0 -18 5 -58 11 -90 9 -53 8 -62 -12 -101
l-23 -43 19 -243 19 -243 -39 -111 -38 -110 -9 -280 c-9 -300 -20 -373 -71
-485 -167 -367 -183 -421 -131 -455 30 -19 169 -24 202 -6 10 5 61 44 111 86
51 41 97 75 102 75 5 0 9 -7 9 -16 0 -9 11 -136 24 -283 14 -146 29 -317 35
-380 10 -122 15 -131 66 -131 88 -1 256 -82 329 -159 l30 -31 -33 -34 c-37
-38 -108 -76 -142 -76 -13 0 -44 9 -68 20 -56 26 -142 27 -163 3 -12 -15 -15
-69 -16 -340 l-1 -321 -30 -79 c-24 -62 -33 -111 -46 -238 -40 -401 -67 -616
-104 -815 -53 -287 -63 -377 -59 -490 l3 -95 -46 -42 c-43 -39 -47 -49 -64
-125 -18 -86 -35 -120 -164 -318 -30 -47 -74 -131 -96 -187 -23 -56 -55 -121
-71 -144 -80 -115 -258 -261 -499 -409 -138 -84 -162 -97 -300 -155 l-140 -59
-160 -7 c-244 -11 -503 -10 -575 2 -36 5 -95 19 -133 31 l-67 20 -40 -35 c-52
-47 -91 -67 -135 -67 -41 0 -39 -1 -149 100 -44 41 -100 91 -124 110 l-43 35
-137 -3 c-123 -3 -146 -1 -224 22 -167 49 -307 126 -495 272 l-82 64 -74 0
-74 0 -129 133 c-78 80 -183 174 -266 237 -135 104 -137 106 -172 182 -20 43
-36 79 -36 82 0 2 -22 51 -49 108 -26 56 -63 137 -82 178 -28 62 -130 210
-146 210 -4 0 -169 -112 -227 -154 l-28 -21 6 -85 c4 -47 33 -291 64 -543 l57
-458 70 -51 c62 -45 148 -115 212 -173 12 -11 100 -47 195 -79 95 -32 218 -82
273 -111 55 -29 156 -82 225 -118 69 -36 175 -84 236 -107 l112 -41 88 16 c49
8 137 27 195 41 91 22 112 24 148 14 55 -15 116 -77 154 -158 31 -67 32 -68
137 -101 257 -80 376 -95 730 -88 295 5 369 13 481 50 65 22 66 22 140 4 129
-32 372 -10 561 49 94 30 219 84 293 128 67 39 187 117 202 130 6 6 26 22 44
36 18 14 87 72 153 128 67 57 130 111 141 120 35 29 229 196 243 209 7 7 23
20 35 28 22 16 22 17 -45 78 -38 34 -68 66 -68 71 0 29 115 90 207 109 39 8
76 18 82 21 7 5 11 52 11 127 0 102 3 122 19 141 10 13 30 36 42 51 13 15 87
69 164 120 166 109 162 103 237 362 28 94 61 206 75 250 26 83 51 260 38 273
-3 4 -42 9 -86 11 l-80 3 3 42 c3 35 6 41 28 44 63 7 68 11 75 54 5 29 17 50
38 67 88 75 119 108 142 155 24 49 25 65 39 373 14 308 14 327 -4 433 l-19
110 50 133 49 132 7 327 c7 368 15 318 -79 517 l-39 84 44 46 c58 59 77 99 77
158 1 26 -12 166 -27 310 -29 284 -30 268 18 443 l23 85 -38 135 c-21 74 -43
149 -49 167 -9 28 -7 37 29 95 45 73 48 109 22 282 l-15 98 45 97 c74 163 77
173 63 265 -21 144 -74 407 -85 425 -4 6 -34 27 -66 47 -58 35 -60 39 -60 78
0 25 23 104 60 205 l60 163 0 139 0 138 -55 27 c-31 14 -62 36 -70 48 -20 31
-10 79 24 109 26 23 28 31 39 164 7 76 12 159 12 184 0 59 -33 159 -76 231
-29 48 -33 60 -24 83 5 14 10 53 10 87 0 66 -19 109 -56 129 -13 6 -24 19 -26
27 -2 8 0 80 3 158 6 133 10 150 42 231 19 49 43 120 53 158 9 39 20 73 23 77
9 11 134 -29 156 -49 11 -10 85 -68 165 -128 80 -60 164 -124 187 -142 24 -17
77 -44 119 -60 66 -24 92 -41 180 -120 80 -73 128 -106 218 -154 68 -36 121
-70 129 -84 6 -12 45 -74 86 -136 72 -112 76 -116 203 -209 71 -52 135 -100
141 -105 7 -6 33 -26 59 -43 26 -18 67 -57 90 -87 49 -61 49 -61 243 -100 72
-14 145 -33 162 -42 65 -32 92 -148 59 -257 l-14 -47 77 -78 c43 -43 95 -100
117 -127 21 -27 52 -62 67 -79 15 -16 42 -49 60 -72 21 -27 64 -59 125 -94 74
-41 107 -68 160 -128 37 -42 96 -99 131 -126 35 -28 105 -90 155 -139 69 -68
103 -93 140 -106 42 -14 56 -26 94 -81 90 -130 103 -142 188 -173 167 -60 166
-60 224 -149 30 -45 57 -84 60 -87 4 -3 23 -33 44 -67 45 -72 57 -84 111 -102
22 -8 74 -27 116 -43 l75 -28 29 -183 c30 -194 32 -201 126 -312 10 -11 45
-54 79 -95 71 -87 90 -105 185 -180 66 -52 104 -77 312 -202 97 -58 118 -81
235 -248 99 -141 82 -130 201 -130 240 0 458 28 587 75 186 68 428 149 527
176 93 26 131 42 178 75 33 24 101 72 152 106 l91 63 -21 23 c-34 37 -158 110
-199 117 -35 7 -102 -2 -336 -42 -133 -22 -158 -16 -231 60 -40 42 -103 89
-188 142 -591 364 -533 325 -669 452 -175 164 -209 186 -362 235 -110 34 -137
47 -154 70 -28 41 -48 121 -48 201 0 65 -2 70 -38 110 -22 23 -119 132 -217
242 -99 110 -208 231 -244 268 -36 38 -69 75 -74 82 -4 7 -58 52 -120 98 -106
80 -115 89 -152 162 -44 85 -27 72 -240 183 -78 41 -75 33 -55 125 21 93 22
88 -54 172 -25 28 -67 78 -93 112 -26 34 -106 118 -177 185 -229 218 -239 228
-416 428 -36 41 -70 78 -75 84 -20 21 -174 206 -189 227 -13 19 -20 20 -89 14
-58 -6 -81 -4 -104 9 -35 18 -69 79 -79 144 -6 39 -4 44 26 71 l33 28 -69 72
c-65 69 -69 72 -103 66 -43 -8 -85 -29 -132 -66 -31 -25 -45 -29 -94 -28 -64
2 -81 14 -91 65 -7 40 18 83 88 150 27 26 50 60 62 93 l18 52 -29 27 c-64 60
-83 131 -43 167 29 27 98 30 143 7 l37 -20 91 73 c88 70 93 72 157 78 41 3
134 28 237 61 152 50 179 56 255 56 81 0 96 4 242 59 86 32 178 71 205 86 59
34 117 103 148 175 l23 55 66 7 c60 6 76 13 164 71 122 80 122 80 229 118 48
18 96 39 107 48 10 9 79 87 153 173 129 150 162 179 253 220 14 6 44 35 67 64
l41 52 -24 52 c-26 56 -29 85 -14 124 8 23 16 26 57 27 81 1 155 15 167 31 35
48 89 111 151 176 45 47 82 97 102 140 18 37 32 69 33 73 0 3 -16 22 -35 43
-51 56 -95 187 -62 186 6 -1 48 -7 92 -15 131 -24 119 -31 159 98 40 130 52
183 66 290 52 397 -93 712 -380 825 -30 12 -143 46 -250 77 -107 31 -224 71
-260 89 -36 18 -121 62 -190 98 l-125 65 -220 11 c-172 10 -270 21 -450 52
-126 22 -259 44 -295 50 -36 5 -87 14 -115 19 -28 5 -393 11 -830 12 l-780 3
-82 43 c-90 47 -105 50 -196 29 -34 -8 -141 -29 -237 -46 -96 -18 -203 -38
-237 -46 -34 -8 -73 -14 -85 -14 -25 0 -101 44 -163 94 l-36 29 -157 -16 c-86
-9 -251 -22 -367 -27 -115 -6 -252 -16 -304 -22 -87 -10 -102 -9 -189 13 l-94
23 -41 -24 c-23 -13 -69 -44 -102 -70 -45 -36 -97 -62 -215 -107 -85 -33 -176
-65 -202 -72 -42 -12 -48 -17 -53 -45 -2 -17 -9 -54 -13 -83 -6 -31 -5 -58 1
-69 8 -14 3 -23 -21 -43 -17 -14 -77 -96 -133 -181 -56 -85 -126 -181 -155
-213 -51 -55 -54 -61 -48 -97 9 -56 -12 -129 -58 -206 -27 -45 -38 -72 -32
-80 47 -67 184 -273 184 -276 0 -14 -134 -109 -180 -128 -65 -28 -96 -53 -120
-100 -19 -38 -54 -153 -64 -210 -6 -35 -6 -35 54 -62 50 -22 60 -30 60 -51 0
-13 3 -38 6 -54 5 -27 2 -30 -45 -53 -41 -19 -51 -28 -51 -48 0 -33 -71 -97
-125 -112 l-42 -12 -27 -103 c-15 -56 -58 -172 -95 -256 -38 -85 -107 -239
-153 -344 -113 -252 -115 -258 -138 -422 -34 -240 -27 -220 -158 -418 l-119
-180 -238 -555 c-130 -305 -245 -575 -255 -600 -59 -145 -127 -283 -205 -415
-143 -244 -265 -454 -265 -458 0 -8 -189 -352 -265 -482 -29 -49 -74 -127
-100 -172 -25 -44 -54 -89 -63 -100 -10 -10 -55 -61 -101 -113 -46 -52 -107
-120 -135 -150 -28 -30 -74 -82 -101 -115 -55 -65 -260 -275 -270 -275 -3 0
-30 19 -59 43 -49 39 -61 58 -157 250 -95 191 -111 215 -180 290 -74 78 -79
87 -140 236 -108 266 -111 271 -186 338 l-68 61 -29 118 c-16 66 -32 124 -35
131 -3 6 -63 72 -134 146 -70 74 -159 178 -198 231 -42 57 -79 98 -92 101 -12
3 -43 9 -69 15 -59 12 -152 63 -156 85 -2 10 3 36 11 59 8 22 30 97 48 165
l33 124 -28 81 c-38 112 -205 446 -263 529 l-49 69 -56 1 c-46 2 -63 7 -94 32
-69 57 -72 43 46 232 12 19 10 29 -21 90 -44 88 -68 102 -201 115 -57 5 -109
13 -117 17 -17 8 -70 137 -70 172 -1 32 42 97 108 167 28 29 51 59 51 67 0 8
-34 108 -74 222 -41 114 -91 255 -111 313 -69 198 -256 607 -307 673 -66 85
-144 140 -223 158 l-53 12 -26 67 c-22 55 -33 69 -61 83 -19 9 -35 21 -35 27
0 5 27 53 61 105 l61 95 -62 192 c-104 329 -79 285 -196 342 -95 45 -102 51
-113 87 -9 29 -9 50 -1 81 18 68 55 177 85 250 l27 67 -48 78 c-196 319 -211
348 -234 447 -16 68 -16 68 -86 115 -80 53 -110 101 -120 192 -6 57 -8 59 -43
69 -20 6 -61 14 -91 16 -47 5 -63 2 -105 -21z m11417 -535 c20 -41 37 -82 37
-91 1 -13 16 -17 84 -21 68 -4 110 -16 247 -65 151 -55 174 -61 273 -67 l107
-6 162 -122 c255 -195 271 -207 309 -242 43 -42 93 -134 107 -201 36 -162 20
-275 -69 -516 -49 -132 -64 -185 -75 -273 -14 -110 -17 -118 -74 -176 -14 -14
-40 -43 -59 -65 -19 -22 -80 -89 -135 -149 -55 -59 -122 -143 -147 -185 -26
-42 -98 -161 -161 -264 l-114 -189 -225 -96 c-236 -102 -243 -106 -355 -189
-58 -43 -99 -63 -230 -109 -87 -31 -170 -60 -184 -64 -97 -31 -259 -94 -320
-125 l-72 -36 -64 25 c-81 33 -95 32 -185 -3 -297 -118 -311 -122 -454 -141
-77 -11 -154 -23 -171 -28 -27 -9 -34 -6 -74 30 l-43 39 -293 -7 -293 -7 2 27
c2 24 -6 32 -63 63 -125 68 -189 137 -197 215 -3 24 7 111 21 194 16 92 26
190 26 248 0 54 5 139 11 189 10 87 9 96 -14 162 l-25 70 -67 25 c-109 41
-175 112 -175 189 0 54 41 122 119 198 l74 73 -6 157 c-26 657 -28 777 -18
915 13 162 22 205 57 266 27 46 78 78 142 88 34 5 48 16 88 65 l47 59 65 0
c36 0 138 9 226 20 372 46 726 81 792 78 66 -2 73 0 111 29 l40 32 169 -15
c93 -8 221 -19 284 -24 63 -5 193 -16 289 -25 96 -8 176 -13 178 -11 6 6 40
64 64 111 l21 41 86 -11 87 -10 37 -75z"/>
<path d="M17420 6180 c0 -5 9 -10 20 -10 20 0 20 -7 20 -310 0 -303 0 -310
-20 -310 -11 0 -20 -4 -20 -10 0 -6 45 -10 115 -10 70 0 115 4 115 10 0 6 -9
10 -20 10 -19 0 -20 7 -20 243 l0 242 101 -215 c55 -118 106 -230 113 -248
l12 -33 69 153 c38 84 88 194 112 243 l42 90 1 -237 c0 -231 -1 -238 -20 -238
-11 0 -20 -4 -20 -10 0 -6 52 -10 135 -10 83 0 135 4 135 10 0 6 -9 10 -20 10
-20 0 -20 7 -20 310 0 303 0 310 20 310 11 0 20 5 20 10 0 6 -65 10 -175 10
-110 0 -175 -4 -175 -10 0 -5 7 -10 15 -10 25 0 18 -22 -48 -158 l-63 -129
-57 127 c-60 134 -67 160 -42 160 8 0 15 5 15 10 0 6 -63 10 -170 10 -107 0
-170 -4 -170 -10z"/>
<path d="M23385 6180 c3 -5 13 -10 21 -10 12 0 14 -35 14 -220 l0 -221 -26
-26 c-24 -24 -30 -25 -89 -20 -84 8 -135 33 -142 70 -3 15 -9 25 -14 20 -13
-14 -87 -207 -82 -216 2 -4 13 -2 24 4 15 8 32 6 67 -6 66 -23 203 -30 288
-16 61 11 76 18 108 50 20 20 41 53 46 72 6 18 10 141 10 271 0 231 1 238 20
238 11 0 20 5 20 10 0 6 -52 10 -136 10 -87 0 -133 -4 -129 -10z"/>
<path d="M21876 6095 c-5 -13 -47 -15 -301 -15 -190 0 -295 -4 -295 -10 0 -5
9 -10 20 -10 19 0 20 -7 20 -255 0 -248 -1 -255 -20 -255 -11 0 -20 -4 -20
-10 0 -6 104 -10 293 -10 215 0 296 -3 305 -12 9 -9 12 7 12 72 0 80 -1 82
-18 67 -16 -15 -45 -17 -200 -17 l-182 0 0 60 0 60 125 0 c108 0 125 -2 134
-17 8 -13 10 6 10 72 0 66 -2 85 -10 73 -9 -16 -26 -18 -134 -18 l-125 0 0 50
0 50 190 0 c169 0 190 -2 199 -17 8 -13 10 5 11 70 0 86 -3 101 -14 72z"/>
<path d="M24416 6095 c-5 -13 -47 -15 -301 -15 -190 0 -295 -4 -295 -10 0 -5
9 -10 20 -10 19 0 20 -7 20 -255 0 -248 -1 -255 -20 -255 -11 0 -20 -4 -20
-10 0 -6 104 -10 293 -10 215 0 296 -3 305 -12 9 -9 12 6 12 70 0 68 -2 80
-15 76 -8 -4 -15 -10 -15 -15 0 -5 -83 -9 -185 -9 l-185 0 0 60 0 60 125 0
c108 0 125 -2 134 -17 8 -13 10 6 10 72 0 66 -2 85 -10 73 -9 -16 -26 -18
-134 -18 l-125 0 0 50 0 50 190 0 c169 0 190 -2 199 -17 8 -13 10 5 11 70 0
86 -3 101 -14 72z"/>
<path d="M25146 6095 c-5 -13 -46 -15 -286 -15 -180 0 -280 -4 -280 -10 0 -5
9 -10 20 -10 19 0 20 -7 20 -255 0 -248 -1 -255 -20 -255 -11 0 -20 -4 -20
-10 0 -6 48 -10 125 -10 77 0 125 4 125 10 0 6 -9 10 -20 10 -19 0 -20 7 -20
95 l0 95 120 0 c98 0 122 -3 126 -15 14 -37 24 -8 24 70 0 50 -4 85 -10 85 -5
0 -10 -7 -10 -15 0 -13 -21 -15 -125 -15 l-125 0 0 60 0 60 175 0 c147 0 177
-2 181 -15 14 -37 24 -8 24 70 0 78 -10 107 -24 70z"/>
<path d="M25846 6095 c-5 -13 -46 -15 -286 -15 -180 0 -280 -4 -280 -10 0 -5
9 -10 20 -10 19 0 20 -7 20 -255 0 -248 -1 -255 -20 -255 -11 0 -20 -4 -20
-10 0 -6 48 -10 125 -10 77 0 125 4 125 10 0 6 -9 10 -20 10 -19 0 -20 7 -20
95 l0 95 120 0 c98 0 122 -3 126 -15 14 -37 24 -8 24 70 0 78 -10 107 -24 70
-4 -12 -28 -15 -126 -15 l-120 0 0 60 0 60 175 0 c147 0 177 -2 181 -15 14
-37 24 -8 24 70 0 78 -10 107 -24 70z"/>
<path d="M27336 6095 c-5 -13 -47 -15 -301 -15 -190 0 -295 -4 -295 -10 0 -5
9 -10 20 -10 19 0 20 -7 20 -255 0 -248 -1 -255 -20 -255 -11 0 -20 -4 -20
-10 0 -6 104 -10 293 -10 215 0 296 -3 305 -12 9 -9 12 7 12 72 0 80 -1 82
-18 67 -16 -15 -45 -17 -200 -17 l-182 0 0 60 0 60 125 0 c108 0 125 -2 134
-17 8 -13 10 6 10 72 0 66 -2 85 -10 73 -9 -16 -26 -18 -134 -18 l-125 0 0 50
0 50 190 0 c169 0 190 -2 199 -17 8 -13 10 5 11 70 0 86 -3 101 -14 72z"/>
<path d="M30766 6095 c-5 -13 -47 -15 -301 -15 -190 0 -295 -4 -295 -10 0 -5
9 -10 20 -10 19 0 20 -7 20 -255 0 -248 -1 -255 -20 -255 -11 0 -20 -4 -20
-10 0 -6 104 -10 293 -10 215 0 296 -3 305 -12 9 -9 12 7 12 72 0 80 -1 82
-18 67 -16 -15 -45 -17 -200 -17 l-182 0 0 60 0 60 129 0 c115 0 130 -2 134
-17 3 -10 5 23 5 72 0 50 -2 82 -5 73 -4 -16 -19 -18 -134 -18 l-129 0 0 50 0
50 190 0 c169 0 190 -2 199 -17 8 -13 10 5 11 70 0 86 -3 101 -14 72z"/>
<path d="M19070 6076 c-151 -32 -237 -120 -248 -253 -9 -114 43 -198 154 -249
130 -61 320 -57 447 8 24 12 49 17 64 13 21 -5 17 4 -37 85 -34 50 -65 88 -70
85 -5 -3 -7 -12 -4 -20 4 -8 -9 -23 -33 -39 -141 -93 -353 -30 -353 104 0 87
79 144 200 145 91 0 170 -26 170 -56 0 -39 21 -16 65 72 36 71 42 89 28 85
-10 -3 -61 3 -113 14 -106 22 -188 24 -270 6z"/>
<path d="M29611 6074 c-70 -19 -111 -44 -160 -100 -81 -92 -82 -247 -1 -337
101 -114 335 -140 481 -55 108 64 153 178 118 303 -43 154 -245 241 -438 189z
m199 -137 c25 -13 51 -37 61 -57 74 -137 -87 -274 -231 -197 -142 75 -80 277
85 277 24 0 60 -10 85 -23z"/>
<path d="M18450 6070 c0 -5 9 -10 20 -10 19 0 20 -7 20 -255 0 -248 -1 -255
-20 -255 -11 0 -20 -4 -20 -10 0 -6 48 -10 125 -10 77 0 125 4 125 10 0 6 -9
10 -20 10 -19 0 -20 7 -20 255 0 248 1 255 20 255 11 0 20 5 20 10 0 6 -48 10
-125 10 -77 0 -125 -4 -125 -10z"/>
<path d="M19620 6070 c0 -5 9 -10 20 -10 19 0 20 -7 20 -255 0 -248 -1 -255
-20 -255 -11 0 -20 -4 -20 -10 0 -6 48 -10 125 -10 77 0 125 4 125 10 0 6 -9
10 -20 10 -19 0 -20 7 -20 105 l0 105 140 0 140 0 0 -105 c0 -98 -1 -105 -20
-105 -11 0 -20 -4 -20 -10 0 -6 48 -10 125 -10 77 0 125 4 125 10 0 6 -9 10
-20 10 -19 0 -20 7 -20 255 0 248 1 255 20 255 11 0 20 5 20 10 0 6 -49 10
-126 10 -81 0 -123 -4 -119 -10 3 -5 13 -10 21 -10 11 0 14 -18 14 -85 l0 -85
-140 0 -140 0 0 85 c0 67 3 85 14 85 8 0 18 5 21 10 4 6 -38 10 -119 10 -77 0
-126 -4 -126 -10z"/>
<path d="M20650 6071 c0 -5 5 -11 12 -13 12 -4 -12 -66 -99 -258 -14 -30 -43
-95 -65 -145 -21 -49 -46 -95 -54 -101 -8 -6 -14 -14 -14 -18 0 -3 43 -6 96
-6 82 0 95 2 85 14 -10 11 -8 23 9 55 l20 41 143 0 143 0 17 -36 c10 -20 15
-45 12 -55 -6 -18 0 -19 99 -19 64 0 106 4 106 10 0 6 -6 10 -13 10 -17 0
-253 503 -238 508 6 2 11 8 11 13 0 5 -60 9 -135 9 -75 0 -135 -4 -135 -9z
m181 -228 c24 -53 46 -100 47 -105 2 -4 -42 -8 -98 -8 -56 0 -100 4 -98 8 20
51 94 202 99 202 3 0 25 -44 50 -97z"/>
<path d="M22060 6070 c0 -5 7 -10 15 -10 13 0 15 -35 15 -255 0 -220 -2 -255
-15 -255 -8 0 -15 -4 -15 -10 0 -6 100 -10 280 -10 242 0 280 -2 280 -15 0 -8
5 -15 10 -15 6 0 10 38 10 95 0 57 -4 95 -10 95 -5 0 -10 -7 -10 -15 0 -13
-27 -15 -180 -15 l-180 0 0 200 c0 171 2 200 15 200 8 0 15 5 15 10 0 6 -45
10 -115 10 -70 0 -115 -4 -115 -10z"/>
<path d="M25990 6071 c0 -6 7 -11 15 -11 13 0 15 -35 15 -255 0 -220 -2 -255
-15 -255 -8 0 -15 -4 -15 -10 0 -6 42 -10 105 -10 63 0 105 4 105 10 0 6 -7
10 -15 10 -12 0 -15 17 -15 90 l0 90 60 0 60 0 45 -77 c25 -43 45 -82 45 -87
0 -5 -8 -15 -17 -22 -15 -11 2 -13 115 -14 72 0 132 4 132 9 0 5 -9 11 -19 14
-10 2 -46 45 -79 94 l-60 89 45 24 c59 31 86 71 90 134 6 69 -27 132 -82 160
-36 19 -61 21 -277 24 -162 2 -238 0 -238 -7z m430 -121 c26 -26 25 -64 -2
-90 -19 -18 -35 -20 -135 -20 l-113 0 0 65 0 65 115 0 c102 0 117 -2 135 -20z"/>
<path d="M27450 6070 c0 -5 8 -10 18 -10 10 -1 64 -64 140 -165 l122 -165 0
-90 c0 -73 -3 -90 -15 -90 -8 0 -15 -4 -15 -10 0 -6 45 -10 115 -10 70 0 115
4 115 10 0 6 -7 10 -15 10 -12 0 -15 17 -15 93 l0 92 107 159 c60 88 116 161
125 164 10 2 18 8 18 13 0 5 -56 9 -125 9 -70 0 -125 -4 -125 -9 0 -5 7 -11
16 -13 13 -2 7 -17 -31 -73 -74 -109 -64 -108 -134 -18 -65 83 -70 93 -46 93
8 0 15 5 15 10 0 6 -52 10 -135 10 -83 0 -135 -4 -135 -10z"/>
<path d="M28670 6071 c0 -6 7 -11 15 -11 13 0 15 -35 15 -255 0 -220 -2 -255
-15 -255 -8 0 -15 -4 -15 -10 0 -6 42 -10 105 -10 63 0 105 4 105 10 0 6 -7
10 -15 10 -12 0 -15 17 -15 90 l0 90 60 0 60 0 45 -77 c25 -43 45 -82 45 -87
0 -5 -8 -15 -17 -22 -15 -11 2 -13 115 -14 72 0 132 4 132 9 0 5 -9 11 -19 14
-10 2 -46 45 -79 94 l-60 89 45 24 c59 31 86 71 90 134 6 69 -27 132 -82 160
-36 19 -61 21 -277 24 -162 2 -238 0 -238 -7z m413 -110 c47 -18 48 -88 2
-109 -15 -7 -72 -12 -130 -12 l-105 0 0 65 0 65 104 0 c58 0 116 -4 129 -9z"/>
</g>
</svg>
